<svg xmlns="http://www.w3.org/2000/svg" viewBox="0 0 1600 900" width="1600" height="900">
  <defs>
    <linearGradient id="sky" x1="0" y1="0" x2="1" y2="1">
      <stop offset="0%" stop-color="#33291f"/>
      <stop offset="100%" stop-color="#181310"/>
    </linearGradient>
    <radialGradient id="vig" cx="50%" cy="42%" r="75%">
      <stop offset="60%" stop-color="#000000" stop-opacity="0"/>
      <stop offset="100%" stop-color="#000000" stop-opacity="0.45"/>
    </radialGradient>
  </defs>
  <rect width="1600" height="900" fill="url(#sky)"/>
  
  <g opacity="0.9"><line x1="40" y1="0" x2="40" y2="900" stroke="#e6ddc9" stroke-width="5" opacity="0.85"/><line x1="182" y1="0" x2="182" y2="900" stroke="#e6ddc9" stroke-width="2" opacity="0.45"/><line x1="338" y1="0" x2="338" y2="900" stroke="#e6ddc9" stroke-width="2" opacity="0.45"/><line x1="497" y1="0" x2="497" y2="900" stroke="#e6ddc9" stroke-width="2" opacity="0.45"/><line x1="601" y1="0" x2="601" y2="900" stroke="#e6ddc9" stroke-width="2" opacity="0.45"/><line x1="713" y1="0" x2="713" y2="900" stroke="#e6ddc9" stroke-width="5" opacity="0.85"/><line x1="851" y1="0" x2="851" y2="900" stroke="#e6ddc9" stroke-width="2" opacity="0.45"/><line x1="969" y1="0" x2="969" y2="900" stroke="#e6ddc9" stroke-width="2" opacity="0.45"/><line x1="1096" y1="0" x2="1096" y2="900" stroke="#e6ddc9" stroke-width="2" opacity="0.45"/><line x1="1189" y1="0" x2="1189" y2="900" stroke="#e6ddc9" stroke-width="2" opacity="0.45"/><line x1="1307" y1="0" x2="1307" y2="900" stroke="#e6ddc9" stroke-width="5" opacity="0.85"/><line x1="1411" y1="0" x2="1411" y2="900" stroke="#e6ddc9" stroke-width="2" opacity="0.45"/><line x1="1560" y1="0" x2="1560" y2="900" stroke="#e6ddc9" stroke-width="2" opacity="0.45"/><line x1="0" y1="30" x2="1600" y2="30" stroke="#e6ddc9" stroke-width="5" opacity="0.85"/><line x1="0" y1="111" x2="1600" y2="111" stroke="#e6ddc9" stroke-width="2" opacity="0.45"/><line x1="0" y1="203" x2="1600" y2="203" stroke="#e6ddc9" stroke-width="2" opacity="0.45"/><line x1="0" y1="303" x2="1600" y2="303" stroke="#e6ddc9" stroke-width="2" opacity="0.45"/><line x1="0" y1="448" x2="1600" y2="448" stroke="#e6ddc9" stroke-width="2" opacity="0.45"/><line x1="0" y1="566" x2="1600" y2="566" stroke="#e6ddc9" stroke-width="5" opacity="0.85"/><line x1="0" y1="694" x2="1600" y2="694" stroke="#e6ddc9" stroke-width="2" opacity="0.45"/><line x1="0" y1="825" x2="1600" y2="825" stroke="#e6ddc9" stroke-width="2" opacity="0.45"/><line x1="0" y1="870" x2="1600" y2="870" stroke="#e6ddc9" stroke-width="2" opacity="0.45"/></g>
  <g transform="rotate(0 111.0 70.5)"><rect x="53" y="43" width="116" height="55" rx="3" fill="#7d6a4f"/><line x1="53" y1="43" x2="169" y2="43" stroke="#efe6d2" stroke-width="1" opacity="0.4"/></g><g transform="rotate(0 111.0 157.0)"><rect x="49" y="120" width="124" height="74" rx="3" fill="#54452f"/><line x1="49" y1="120" x2="173" y2="120" stroke="#efe6d2" stroke-width="1" opacity="0.4"/></g><rect x="52" y="215" width="118" height="76" rx="10" fill="#556b45" opacity="0.55"/><g transform="rotate(0 111.0 375.5)"><rect x="55" y="318" width="112" height="115" rx="3" fill="#7d6a4f"/><line x1="55" y1="318" x2="167" y2="318" stroke="#efe6d2" stroke-width="1" opacity="0.4"/></g><g transform="rotate(1 111.0 507.0)"><rect x="51" y="459" width="120" height="96" rx="3" fill="#6a5a45"/><line x1="51" y1="459" x2="171" y2="459" stroke="#efe6d2" stroke-width="1" opacity="0.4"/></g><g transform="rotate(1 111.0 630.0)"><rect x="53" y="579" width="116" height="102" rx="3" fill="#8f7752"/><line x1="53" y1="579" x2="169" y2="579" stroke="#efe6d2" stroke-width="1" opacity="0.4"/></g><g transform="rotate(1 111.0 759.5)"><rect x="56" y="710" width="110" height="99" rx="3" fill="#8f7752"/><line x1="56" y1="710" x2="166" y2="710" stroke="#efe6d2" stroke-width="1" opacity="0.4"/></g><g transform="rotate(0 111.0 847.5)"><rect x="53" y="838" width="116" height="19" rx="3" fill="#6a5a45"/><line x1="53" y1="838" x2="169" y2="838" stroke="#efe6d2" stroke-width="1" opacity="0.4"/></g><g transform="rotate(0 260.0 70.5)"><rect x="193" y="41" width="134" height="59" rx="3" fill="#54452f"/><line x1="193" y1="41" x2="327" y2="41" stroke="#efe6d2" stroke-width="1" opacity="0.4"/></g><g transform="rotate(0 260.0 157.0)"><rect x="196" y="125" width="128" height="64" rx="3" fill="#54452f"/><line x1="196" y1="125" x2="324" y2="125" stroke="#efe6d2" stroke-width="1" opacity="0.4"/></g><g transform="rotate(-1 260.0 253.0)"><rect x="190" y="211" width="140" height="84" rx="3" fill="#6a5a45"/><line x1="190" y1="211" x2="330" y2="211" stroke="#efe6d2" stroke-width="1" opacity="0.4"/></g><g transform="rotate(-1 260.0 375.5)"><rect x="192" y="313" width="136" height="125" rx="3" fill="#6a5a45"/><line x1="192" y1="313" x2="328" y2="313" stroke="#efe6d2" stroke-width="1" opacity="0.4"/></g><g transform="rotate(1 260.0 507.0)"><rect x="191" y="457" width="138" height="100" rx="3" fill="#6a5a45"/><line x1="191" y1="457" x2="329" y2="457" stroke="#efe6d2" stroke-width="1" opacity="0.4"/></g><g transform="rotate(0 260.0 630.0)"><rect x="198" y="582" width="124" height="96" rx="3" fill="#7d6a4f"/><line x1="198" y1="582" x2="322" y2="582" stroke="#efe6d2" stroke-width="1" opacity="0.4"/></g><g transform="rotate(-1 260.0 759.5)"><rect x="194" y="706" width="132" height="107" rx="3" fill="#54452f"/><line x1="194" y1="706" x2="326" y2="706" stroke="#efe6d2" stroke-width="1" opacity="0.4"/></g><g transform="rotate(1 260.0 847.5)"><rect x="191" y="834" width="138" height="27" rx="3" fill="#54452f"/><line x1="191" y1="834" x2="329" y2="834" stroke="#efe6d2" stroke-width="1" opacity="0.4"/></g><g transform="rotate(0 417.5 70.5)"><rect x="354" y="46" width="127" height="49" rx="3" fill="#8f7752"/><line x1="354" y1="46" x2="481" y2="46" stroke="#efe6d2" stroke-width="1" opacity="0.4"/></g><g transform="rotate(0 417.5 157.0)"><rect x="348" y="121" width="139" height="72" rx="3" fill="#7d6a4f"/><line x1="348" y1="121" x2="487" y2="121" stroke="#efe6d2" stroke-width="1" opacity="0.4"/></g><g transform="rotate(0 417.5 253.0)"><rect x="352" y="217" width="131" height="72" rx="3" fill="#8f7752"/><line x1="352" y1="217" x2="483" y2="217" stroke="#efe6d2" stroke-width="1" opacity="0.4"/></g><g transform="rotate(0 417.5 375.5)"><rect x="348" y="313" width="139" height="125" rx="3" fill="#54452f"/><line x1="348" y1="313" x2="487" y2="313" stroke="#efe6d2" stroke-width="1" opacity="0.4"/></g><g transform="rotate(1 417.5 630.0)"><rect x="353" y="581" width="129" height="98" rx="3" fill="#54452f"/><line x1="353" y1="581" x2="482" y2="581" stroke="#efe6d2" stroke-width="1" opacity="0.4"/></g><g transform="rotate(-1 417.5 759.5)"><rect x="353" y="709" width="129" height="101" rx="3" fill="#7d6a4f"/><line x1="353" y1="709" x2="482" y2="709" stroke="#efe6d2" stroke-width="1" opacity="0.4"/></g><g transform="rotate(1 417.5 847.5)"><rect x="347" y="834" width="141" height="27" rx="3" fill="#54452f"/><line x1="347" y1="834" x2="488" y2="834" stroke="#efe6d2" stroke-width="1" opacity="0.4"/></g><g transform="rotate(1 549.0 70.5)"><rect x="505" y="38" width="88" height="65" rx="3" fill="#8f7752"/><line x1="505" y1="38" x2="593" y2="38" stroke="#efe6d2" stroke-width="1" opacity="0.4"/></g><g transform="rotate(0 549.0 157.0)"><rect x="513" y="127" width="72" height="60" rx="3" fill="#7d6a4f"/><line x1="513" y1="127" x2="585" y2="127" stroke="#efe6d2" stroke-width="1" opacity="0.4"/></g><g transform="rotate(-1 549.0 253.0)"><rect x="505" y="211" width="88" height="84" rx="3" fill="#6a5a45"/><line x1="505" y1="211" x2="593" y2="211" stroke="#efe6d2" stroke-width="1" opacity="0.4"/></g><g transform="rotate(0 549.0 375.5)"><rect x="507" y="313" width="84" height="125" rx="3" fill="#6a5a45"/><line x1="507" y1="313" x2="591" y2="313" stroke="#efe6d2" stroke-width="1" opacity="0.4"/></g><g transform="rotate(0 549.0 507.0)"><rect x="511" y="462" width="76" height="90" rx="3" fill="#6a5a45"/><line x1="511" y1="462" x2="587" y2="462" stroke="#efe6d2" stroke-width="1" opacity="0.4"/></g><g transform="rotate(-1 549.0 630.0)"><rect x="509" y="578" width="80" height="104" rx="3" fill="#7d6a4f"/><line x1="509" y1="578" x2="589" y2="578" stroke="#efe6d2" stroke-width="1" opacity="0.4"/></g><g transform="rotate(-1 549.0 759.5)"><rect x="510" y="707" width="78" height="105" rx="3" fill="#54452f"/><line x1="510" y1="707" x2="588" y2="707" stroke="#efe6d2" stroke-width="1" opacity="0.4"/></g><rect x="505" y="833" width="88" height="29" rx="10" fill="#556b45" opacity="0.55"/><rect x="612" y="41" width="90" height="59" rx="10" fill="#556b45" opacity="0.55"/><g transform="rotate(1 657.0 253.0)"><rect x="611" y="213" width="92" height="80" rx="3" fill="#54452f"/><line x1="611" y1="213" x2="703" y2="213" stroke="#efe6d2" stroke-width="1" opacity="0.4"/></g><g transform="rotate(0 657.0 375.5)"><rect x="612" y="314" width="90" height="123" rx="3" fill="#7d6a4f"/><line x1="612" y1="314" x2="702" y2="314" stroke="#efe6d2" stroke-width="1" opacity="0.4"/></g><g transform="rotate(0 657.0 507.0)"><rect x="615" y="462" width="84" height="90" rx="3" fill="#7d6a4f"/><line x1="615" y1="462" x2="699" y2="462" stroke="#efe6d2" stroke-width="1" opacity="0.4"/></g><g transform="rotate(1 657.0 630.0)"><rect x="613" y="578" width="88" height="104" rx="3" fill="#8f7752"/><line x1="613" y1="578" x2="701" y2="578" stroke="#efe6d2" stroke-width="1" opacity="0.4"/></g><g transform="rotate(1 657.0 759.5)"><rect x="613" y="706" width="88" height="107" rx="3" fill="#8f7752"/><line x1="613" y1="706" x2="701" y2="706" stroke="#efe6d2" stroke-width="1" opacity="0.4"/></g><g transform="rotate(-1 657.0 847.5)"><rect x="616" y="840" width="82" height="15" rx="3" fill="#54452f"/><line x1="616" y1="840" x2="698" y2="840" stroke="#efe6d2" stroke-width="1" opacity="0.4"/></g><g transform="rotate(0 782.0 70.5)"><rect x="724" y="41" width="116" height="59" rx="3" fill="#7d6a4f"/><line x1="724" y1="41" x2="840" y2="41" stroke="#efe6d2" stroke-width="1" opacity="0.4"/></g><g transform="rotate(-1 782.0 253.0)"><rect x="727" y="217" width="110" height="72" rx="3" fill="#54452f"/><line x1="727" y1="217" x2="837" y2="217" stroke="#efe6d2" stroke-width="1" opacity="0.4"/></g><g transform="rotate(-1 782.0 375.5)"><rect x="727" y="317" width="110" height="117" rx="3" fill="#7d6a4f"/><line x1="727" y1="317" x2="837" y2="317" stroke="#efe6d2" stroke-width="1" opacity="0.4"/></g><g transform="rotate(0 782.0 507.0)"><rect x="723" y="458" width="118" height="98" rx="3" fill="#7d6a4f"/><line x1="723" y1="458" x2="841" y2="458" stroke="#efe6d2" stroke-width="1" opacity="0.4"/></g><g transform="rotate(-1 782.0 630.0)"><rect x="726" y="579" width="112" height="102" rx="3" fill="#6a5a45"/><line x1="726" y1="579" x2="838" y2="579" stroke="#efe6d2" stroke-width="1" opacity="0.4"/></g><g transform="rotate(-1 782.0 759.5)"><rect x="725" y="706" width="114" height="107" rx="3" fill="#7d6a4f"/><line x1="725" y1="706" x2="839" y2="706" stroke="#efe6d2" stroke-width="1" opacity="0.4"/></g><g transform="rotate(0 782.0 847.5)"><rect x="721" y="833" width="122" height="29" rx="3" fill="#7d6a4f"/><line x1="721" y1="833" x2="843" y2="833" stroke="#efe6d2" stroke-width="1" opacity="0.4"/></g><g transform="rotate(0 910.0 70.5)"><rect x="866" y="45" width="88" height="51" rx="3" fill="#6a5a45"/><line x1="866" y1="45" x2="954" y2="45" stroke="#efe6d2" stroke-width="1" opacity="0.4"/></g><g transform="rotate(0 910.0 157.0)"><rect x="861" y="121" width="98" height="72" rx="3" fill="#6a5a45"/><line x1="861" y1="121" x2="959" y2="121" stroke="#efe6d2" stroke-width="1" opacity="0.4"/></g><g transform="rotate(0 910.0 253.0)"><rect x="864" y="216" width="92" height="74" rx="3" fill="#6a5a45"/><line x1="864" y1="216" x2="956" y2="216" stroke="#efe6d2" stroke-width="1" opacity="0.4"/></g><g transform="rotate(0 910.0 507.0)"><rect x="867" y="464" width="86" height="86" rx="3" fill="#8f7752"/><line x1="867" y1="464" x2="953" y2="464" stroke="#efe6d2" stroke-width="1" opacity="0.4"/></g><g transform="rotate(0 910.0 630.0)"><rect x="864" y="579" width="92" height="102" rx="3" fill="#8f7752"/><line x1="864" y1="579" x2="956" y2="579" stroke="#efe6d2" stroke-width="1" opacity="0.4"/></g><g transform="rotate(-1 910.0 847.5)"><rect x="867" y="841" width="86" height="13" rx="3" fill="#6a5a45"/><line x1="867" y1="841" x2="953" y2="841" stroke="#efe6d2" stroke-width="1" opacity="0.4"/></g><g transform="rotate(1 1032.5 70.5)"><rect x="985" y="46" width="95" height="49" rx="3" fill="#6a5a45"/><line x1="985" y1="46" x2="1080" y2="46" stroke="#efe6d2" stroke-width="1" opacity="0.4"/></g><g transform="rotate(0 1032.5 157.0)"><rect x="985" y="127" width="95" height="60" rx="3" fill="#7d6a4f"/><line x1="985" y1="127" x2="1080" y2="127" stroke="#efe6d2" stroke-width="1" opacity="0.4"/></g><g transform="rotate(0 1032.5 253.0)"><rect x="978" y="212" width="109" height="82" rx="3" fill="#7d6a4f"/><line x1="978" y1="212" x2="1087" y2="212" stroke="#efe6d2" stroke-width="1" opacity="0.4"/></g><g transform="rotate(0 1032.5 507.0)"><rect x="981" y="460" width="103" height="94" rx="3" fill="#54452f"/><line x1="981" y1="460" x2="1084" y2="460" stroke="#efe6d2" stroke-width="1" opacity="0.4"/></g><g transform="rotate(0 1032.5 630.0)"><rect x="983" y="580" width="99" height="100" rx="3" fill="#6a5a45"/><line x1="983" y1="580" x2="1082" y2="580" stroke="#efe6d2" stroke-width="1" opacity="0.4"/></g><g transform="rotate(1 1032.5 759.5)"><rect x="977" y="702" width="111" height="115" rx="3" fill="#8f7752"/><line x1="977" y1="702" x2="1088" y2="702" stroke="#efe6d2" stroke-width="1" opacity="0.4"/></g><g transform="rotate(-1 1032.5 847.5)"><rect x="983" y="839" width="99" height="17" rx="3" fill="#7d6a4f"/><line x1="983" y1="839" x2="1082" y2="839" stroke="#efe6d2" stroke-width="1" opacity="0.4"/></g><g transform="rotate(0 1142.5 70.5)"><rect x="1109" y="43" width="67" height="55" rx="3" fill="#54452f"/><line x1="1109" y1="43" x2="1176" y2="43" stroke="#efe6d2" stroke-width="1" opacity="0.4"/></g><g transform="rotate(-1 1142.5 157.0)"><rect x="1111" y="126" width="63" height="62" rx="3" fill="#54452f"/><line x1="1111" y1="126" x2="1174" y2="126" stroke="#efe6d2" stroke-width="1" opacity="0.4"/></g><g transform="rotate(-1 1142.5 253.0)"><rect x="1104" y="211" width="77" height="84" rx="3" fill="#8f7752"/><line x1="1104" y1="211" x2="1181" y2="211" stroke="#efe6d2" stroke-width="1" opacity="0.4"/></g><g transform="rotate(-1 1142.5 375.5)"><rect x="1108" y="315" width="69" height="121" rx="3" fill="#54452f"/><line x1="1108" y1="315" x2="1177" y2="315" stroke="#efe6d2" stroke-width="1" opacity="0.4"/></g><g transform="rotate(0 1142.5 507.0)"><rect x="1107" y="459" width="71" height="96" rx="3" fill="#6a5a45"/><line x1="1107" y1="459" x2="1178" y2="459" stroke="#efe6d2" stroke-width="1" opacity="0.4"/></g><g transform="rotate(0 1142.5 630.0)"><rect x="1107" y="577" width="71" height="106" rx="3" fill="#7d6a4f"/><line x1="1107" y1="577" x2="1178" y2="577" stroke="#efe6d2" stroke-width="1" opacity="0.4"/></g><rect x="1104" y="702" width="77" height="115" rx="10" fill="#556b45" opacity="0.55"/><g transform="rotate(-1 1248.0 70.5)"><rect x="1205" y="46" width="86" height="49" rx="3" fill="#7d6a4f"/><line x1="1205" y1="46" x2="1291" y2="46" stroke="#efe6d2" stroke-width="1" opacity="0.4"/></g><g transform="rotate(0 1248.0 157.0)"><rect x="1205" y="127" width="86" height="60" rx="3" fill="#8f7752"/><line x1="1205" y1="127" x2="1291" y2="127" stroke="#efe6d2" stroke-width="1" opacity="0.4"/></g><g transform="rotate(0 1248.0 253.0)"><rect x="1199" y="213" width="98" height="80" rx="3" fill="#8f7752"/><line x1="1199" y1="213" x2="1297" y2="213" stroke="#efe6d2" stroke-width="1" opacity="0.4"/></g><g transform="rotate(-1 1248.0 375.5)"><rect x="1205" y="319" width="86" height="113" rx="3" fill="#54452f"/><line x1="1205" y1="319" x2="1291" y2="319" stroke="#efe6d2" stroke-width="1" opacity="0.4"/></g><g transform="rotate(-1 1248.0 630.0)"><rect x="1197" y="574" width="102" height="112" rx="3" fill="#54452f"/><line x1="1197" y1="574" x2="1299" y2="574" stroke="#efe6d2" stroke-width="1" opacity="0.4"/></g><g transform="rotate(0 1248.0 847.5)"><rect x="1204" y="840" width="88" height="15" rx="3" fill="#7d6a4f"/><line x1="1204" y1="840" x2="1292" y2="840" stroke="#efe6d2" stroke-width="1" opacity="0.4"/></g><g transform="rotate(0 1359.0 70.5)"><rect x="1319" y="42" width="80" height="57" rx="3" fill="#8f7752"/><line x1="1319" y1="42" x2="1399" y2="42" stroke="#efe6d2" stroke-width="1" opacity="0.4"/></g><g transform="rotate(1 1359.0 157.0)"><rect x="1323" y="127" width="72" height="60" rx="3" fill="#54452f"/><line x1="1323" y1="127" x2="1395" y2="127" stroke="#efe6d2" stroke-width="1" opacity="0.4"/></g><rect x="1319" y="215" width="80" height="76" rx="10" fill="#556b45" opacity="0.55"/><g transform="rotate(0 1359.0 375.5)"><rect x="1322" y="318" width="74" height="115" rx="3" fill="#54452f"/><line x1="1322" y1="318" x2="1396" y2="318" stroke="#efe6d2" stroke-width="1" opacity="0.4"/></g><g transform="rotate(1 1359.0 507.0)"><rect x="1315" y="456" width="88" height="102" rx="3" fill="#54452f"/><line x1="1315" y1="456" x2="1403" y2="456" stroke="#efe6d2" stroke-width="1" opacity="0.4"/></g><g transform="rotate(0 1359.0 630.0)"><rect x="1319" y="578" width="80" height="104" rx="3" fill="#6a5a45"/><line x1="1319" y1="578" x2="1399" y2="578" stroke="#efe6d2" stroke-width="1" opacity="0.4"/></g><g transform="rotate(1 1359.0 847.5)"><rect x="1318" y="836" width="82" height="23" rx="3" fill="#8f7752"/><line x1="1318" y1="836" x2="1400" y2="836" stroke="#efe6d2" stroke-width="1" opacity="0.4"/></g><g transform="rotate(0 1485.5 70.5)"><rect x="1427" y="46" width="117" height="49" rx="3" fill="#7d6a4f"/><line x1="1427" y1="46" x2="1544" y2="46" stroke="#efe6d2" stroke-width="1" opacity="0.4"/></g><g transform="rotate(0 1485.5 157.0)"><rect x="1424" y="124" width="123" height="66" rx="3" fill="#6a5a45"/><line x1="1424" y1="124" x2="1547" y2="124" stroke="#efe6d2" stroke-width="1" opacity="0.4"/></g><g transform="rotate(0 1485.5 253.0)"><rect x="1427" y="219" width="117" height="68" rx="3" fill="#8f7752"/><line x1="1427" y1="219" x2="1544" y2="219" stroke="#efe6d2" stroke-width="1" opacity="0.4"/></g><g transform="rotate(0 1485.5 375.5)"><rect x="1422" y="314" width="127" height="123" rx="3" fill="#8f7752"/><line x1="1422" y1="314" x2="1549" y2="314" stroke="#efe6d2" stroke-width="1" opacity="0.4"/></g><g transform="rotate(-1 1485.5 630.0)"><rect x="1425" y="580" width="121" height="100" rx="3" fill="#7d6a4f"/><line x1="1425" y1="580" x2="1546" y2="580" stroke="#efe6d2" stroke-width="1" opacity="0.4"/></g><g transform="rotate(0 1485.5 759.5)"><rect x="1420" y="703" width="131" height="113" rx="3" fill="#54452f"/><line x1="1420" y1="703" x2="1551" y2="703" stroke="#efe6d2" stroke-width="1" opacity="0.4"/></g><g transform="rotate(0 1485.5 847.5)"><rect x="1419" y="833" width="133" height="29" rx="3" fill="#6a5a45"/><line x1="1419" y1="833" x2="1552" y2="833" stroke="#efe6d2" stroke-width="1" opacity="0.4"/></g>
  <rect x="96.0" y="594.0" width="220" height="110" rx="4" fill="#3a3f46" opacity="0.85"/><polygon points="96.0,594.0 206.0,560.0 316.0,594.0" fill="#3a3f46" opacity="0.6"/><line x1="132.66666666666666" y1="594.0" x2="132.66666666666666" y2="704.0" stroke="#0a0c0f" stroke-width="1" opacity="0.25"/><line x1="169.33333333333331" y1="594.0" x2="169.33333333333331" y2="704.0" stroke="#0a0c0f" stroke-width="1" opacity="0.25"/><line x1="206.0" y1="594.0" x2="206.0" y2="704.0" stroke="#0a0c0f" stroke-width="1" opacity="0.25"/><line x1="242.66666666666666" y1="594.0" x2="242.66666666666666" y2="704.0" stroke="#0a0c0f" stroke-width="1" opacity="0.25"/><line x1="279.33333333333337" y1="594.0" x2="279.33333333333337" y2="704.0" stroke="#0a0c0f" stroke-width="1" opacity="0.25"/><rect x="480.0" y="648.0" width="260" height="96" rx="4" fill="#3a3f46" opacity="0.85"/><polygon points="480.0,648.0 610.0,614.0 740.0,648.0" fill="#3a3f46" opacity="0.6"/><line x1="523.3333333333334" y1="648.0" x2="523.3333333333334" y2="744.0" stroke="#0a0c0f" stroke-width="1" opacity="0.25"/><line x1="566.6666666666666" y1="648.0" x2="566.6666666666666" y2="744.0" stroke="#0a0c0f" stroke-width="1" opacity="0.25"/><line x1="610.0" y1="648.0" x2="610.0" y2="744.0" stroke="#0a0c0f" stroke-width="1" opacity="0.25"/><line x1="653.3333333333334" y1="648.0" x2="653.3333333333334" y2="744.0" stroke="#0a0c0f" stroke-width="1" opacity="0.25"/><line x1="696.6666666666666" y1="648.0" x2="696.6666666666666" y2="744.0" stroke="#0a0c0f" stroke-width="1" opacity="0.25"/><rect x="992.0" y="612.0" width="210" height="120" rx="4" fill="#3a3f46" opacity="0.85"/><polygon points="992.0,612.0 1097.0,578.0 1202.0,612.0" fill="#3a3f46" opacity="0.6"/><line x1="1027.0" y1="612.0" x2="1027.0" y2="732.0" stroke="#0a0c0f" stroke-width="1" opacity="0.25"/><line x1="1062.0" y1="612.0" x2="1062.0" y2="732.0" stroke="#0a0c0f" stroke-width="1" opacity="0.25"/><line x1="1097.0" y1="612.0" x2="1097.0" y2="732.0" stroke="#0a0c0f" stroke-width="1" opacity="0.25"/><line x1="1132.0" y1="612.0" x2="1132.0" y2="732.0" stroke="#0a0c0f" stroke-width="1" opacity="0.25"/><line x1="1167.0" y1="612.0" x2="1167.0" y2="732.0" stroke="#0a0c0f" stroke-width="1" opacity="0.25"/><g opacity="0.5"><line x1="-20" y1="810.0" x2="1620" y2="810.0" stroke="#cfc7b4" stroke-width="2"/><line x1="-20" y1="820.0" x2="1620" y2="820.0" stroke="#cfc7b4" stroke-width="2"/><line x1="-20" y1="830.0" x2="1620" y2="830.0" stroke="#cfc7b4" stroke-width="2"/><line x1="-20" y1="840.0" x2="1620" y2="840.0" stroke="#cfc7b4" stroke-width="2"/></g>
  <rect width="1600" height="900" fill="url(#vig)"/>
  <g opacity="0.55" font-family="monospace" font-size="16" fill="#f2f3f5"><text x="1576" y="880" text-anchor="end">ILLUSTRATIVE MAP - NOT AERIAL PHOTO</text></g>
</svg>