<svg xmlns="http://www.w3.org/2000/svg" viewBox="0 0 1600 900" width="1600" height="900">
  <defs>
    <linearGradient id="sky" x1="0" y1="0" x2="1" y2="1">
      <stop offset="0%" stop-color="#3a2a22"/>
      <stop offset="100%" stop-color="#1c130f"/>
    </linearGradient>
    <radialGradient id="vig" cx="50%" cy="42%" r="75%">
      <stop offset="60%" stop-color="#000000" stop-opacity="0"/>
      <stop offset="100%" stop-color="#000000" stop-opacity="0.45"/>
    </radialGradient>
  </defs>
  <rect width="1600" height="900" fill="url(#sky)"/>
  <circle cx="1152.0" cy="135.0" r="90" fill="none" stroke="#f4ede0" stroke-width="1.4" opacity="0.32"/><circle cx="1152.0" cy="135.0" r="185" fill="none" stroke="#f4ede0" stroke-width="1.4" opacity="0.3"/><circle cx="1152.0" cy="135.0" r="280" fill="none" stroke="#f4ede0" stroke-width="1.4" opacity="0.28"/><circle cx="1152.0" cy="135.0" r="375" fill="none" stroke="#f4ede0" stroke-width="1.4" opacity="0.26"/><circle cx="1152.0" cy="135.0" r="470" fill="none" stroke="#f4ede0" stroke-width="1.4" opacity="0.24"/><circle cx="1152.0" cy="135.0" r="565" fill="none" stroke="#f4ede0" stroke-width="1.4" opacity="0.22"/><circle cx="1152.0" cy="135.0" r="660" fill="none" stroke="#f4ede0" stroke-width="1.4" opacity="0.2"/><circle cx="1152.0" cy="135.0" r="755" fill="none" stroke="#f4ede0" stroke-width="1.4" opacity="0.18"/><circle cx="1152.0" cy="135.0" r="850" fill="none" stroke="#f4ede0" stroke-width="1.4" opacity="0.16"/><circle cx="1152.0" cy="135.0" r="945" fill="none" stroke="#f4ede0" stroke-width="1.4" opacity="0.14"/>
  <g opacity="0.9"><line x1="40" y1="0" x2="40" y2="900" stroke="#f3e4cf" stroke-width="5" opacity="0.85"/><line x1="203" y1="0" x2="203" y2="900" stroke="#f3e4cf" stroke-width="2" opacity="0.45"/><line x1="314" y1="0" x2="314" y2="900" stroke="#f3e4cf" stroke-width="2" opacity="0.45"/><line x1="484" y1="0" x2="484" y2="900" stroke="#f3e4cf" stroke-width="2" opacity="0.45"/><line x1="603" y1="0" x2="603" y2="900" stroke="#f3e4cf" stroke-width="2" opacity="0.45"/><line x1="728" y1="0" x2="728" y2="900" stroke="#f3e4cf" stroke-width="5" opacity="0.85"/><line x1="879" y1="0" x2="879" y2="900" stroke="#f3e4cf" stroke-width="2" opacity="0.45"/><line x1="1037" y1="0" x2="1037" y2="900" stroke="#f3e4cf" stroke-width="2" opacity="0.45"/><line x1="1194" y1="0" x2="1194" y2="900" stroke="#f3e4cf" stroke-width="2" opacity="0.45"/><line x1="1307" y1="0" x2="1307" y2="900" stroke="#f3e4cf" stroke-width="2" opacity="0.45"/><line x1="1475" y1="0" x2="1475" y2="900" stroke="#f3e4cf" stroke-width="5" opacity="0.85"/><line x1="1560" y1="0" x2="1560" y2="900" stroke="#f3e4cf" stroke-width="2" opacity="0.45"/><line x1="0" y1="30" x2="1600" y2="30" stroke="#f3e4cf" stroke-width="5" opacity="0.85"/><line x1="0" y1="151" x2="1600" y2="151" stroke="#f3e4cf" stroke-width="2" opacity="0.45"/><line x1="0" y1="298" x2="1600" y2="298" stroke="#f3e4cf" stroke-width="2" opacity="0.45"/><line x1="0" y1="439" x2="1600" y2="439" stroke="#f3e4cf" stroke-width="2" opacity="0.45"/><line x1="0" y1="575" x2="1600" y2="575" stroke="#f3e4cf" stroke-width="2" opacity="0.45"/><line x1="0" y1="691" x2="1600" y2="691" stroke="#f3e4cf" stroke-width="5" opacity="0.85"/><line x1="0" y1="780" x2="1600" y2="780" stroke="#f3e4cf" stroke-width="2" opacity="0.45"/><line x1="0" y1="870" x2="1600" y2="870" stroke="#f3e4cf" stroke-width="2" opacity="0.45"/></g>
  <g transform="rotate(-1 121.5 90.5)"><rect x="56" y="46" width="131" height="89" rx="3" fill="#7a5138"/><line x1="56" y1="46" x2="187" y2="46" stroke="#fff3e0" stroke-width="1" opacity="0.4"/></g><g transform="rotate(0 121.5 224.5)"><rect x="54" y="165" width="135" height="119" rx="3" fill="#5f3d29"/><line x1="54" y1="165" x2="189" y2="165" stroke="#fff3e0" stroke-width="1" opacity="0.4"/></g><g transform="rotate(0 121.5 368.5)"><rect x="51" y="309" width="141" height="119" rx="3" fill="#7a5138"/><line x1="51" y1="309" x2="192" y2="309" stroke="#fff3e0" stroke-width="1" opacity="0.4"/></g><g transform="rotate(0 121.5 507.0)"><rect x="52" y="451" width="139" height="112" rx="3" fill="#7a5138"/><line x1="52" y1="451" x2="191" y2="451" stroke="#fff3e0" stroke-width="1" opacity="0.4"/></g><g transform="rotate(0 121.5 633.0)"><rect x="53" y="588" width="137" height="90" rx="3" fill="#5f3d29"/><line x1="53" y1="588" x2="190" y2="588" stroke="#fff3e0" stroke-width="1" opacity="0.4"/></g><g transform="rotate(0 121.5 825.0)"><rect x="52" y="792" width="139" height="66" rx="3" fill="#a3754f"/><line x1="52" y1="792" x2="191" y2="792" stroke="#fff3e0" stroke-width="1" opacity="0.4"/></g><g transform="rotate(0 258.5 90.5)"><rect x="211" y="38" width="95" height="105" rx="3" fill="#7a5138"/><line x1="211" y1="38" x2="306" y2="38" stroke="#fff3e0" stroke-width="1" opacity="0.4"/></g><g transform="rotate(0 258.5 224.5)"><rect x="212" y="160" width="93" height="129" rx="3" fill="#7a5138"/><line x1="212" y1="160" x2="305" y2="160" stroke="#fff3e0" stroke-width="1" opacity="0.4"/></g><g transform="rotate(1 258.5 368.5)"><rect x="216" y="311" width="85" height="115" rx="3" fill="#8f6244"/><line x1="216" y1="311" x2="301" y2="311" stroke="#fff3e0" stroke-width="1" opacity="0.4"/></g><g transform="rotate(0 258.5 507.0)"><rect x="218" y="454" width="81" height="106" rx="3" fill="#a3754f"/><line x1="218" y1="454" x2="299" y2="454" stroke="#fff3e0" stroke-width="1" opacity="0.4"/></g><g transform="rotate(0 258.5 633.0)"><rect x="211" y="583" width="95" height="100" rx="3" fill="#a3754f"/><line x1="211" y1="583" x2="306" y2="583" stroke="#fff3e0" stroke-width="1" opacity="0.4"/></g><rect x="214" y="702" width="89" height="67" rx="10" fill="#6b5a3a" opacity="0.55"/><g transform="rotate(1 258.5 825.0)"><rect x="218" y="795" width="81" height="60" rx="3" fill="#8f6244"/><line x1="218" y1="795" x2="299" y2="795" stroke="#fff3e0" stroke-width="1" opacity="0.4"/></g><rect x="329" y="45" width="140" height="91" rx="10" fill="#6b5a3a" opacity="0.55"/><g transform="rotate(-1 399.0 224.5)"><rect x="326" y="163" width="146" height="123" rx="3" fill="#a3754f"/><line x1="326" y1="163" x2="472" y2="163" stroke="#fff3e0" stroke-width="1" opacity="0.4"/></g><g transform="rotate(1 399.0 368.5)"><rect x="329" y="313" width="140" height="111" rx="3" fill="#a3754f"/><line x1="329" y1="313" x2="469" y2="313" stroke="#fff3e0" stroke-width="1" opacity="0.4"/></g><g transform="rotate(0 399.0 633.0)"><rect x="327" y="588" width="144" height="90" rx="3" fill="#8f6244"/><line x1="327" y1="588" x2="471" y2="588" stroke="#fff3e0" stroke-width="1" opacity="0.4"/></g><g transform="rotate(0 399.0 735.5)"><rect x="326" y="703" width="146" height="65" rx="3" fill="#8f6244"/><line x1="326" y1="703" x2="472" y2="703" stroke="#fff3e0" stroke-width="1" opacity="0.4"/></g><g transform="rotate(0 399.0 825.0)"><rect x="328" y="794" width="142" height="62" rx="3" fill="#5f3d29"/><line x1="328" y1="794" x2="470" y2="794" stroke="#fff3e0" stroke-width="1" opacity="0.4"/></g><rect x="500" y="46" width="87" height="89" rx="10" fill="#6b5a3a" opacity="0.55"/><g transform="rotate(0 543.5 224.5)"><rect x="492" y="159" width="103" height="131" rx="3" fill="#7a5138"/><line x1="492" y1="159" x2="595" y2="159" stroke="#fff3e0" stroke-width="1" opacity="0.4"/></g><g transform="rotate(0 543.5 368.5)"><rect x="493" y="307" width="101" height="123" rx="3" fill="#8f6244"/><line x1="493" y1="307" x2="594" y2="307" stroke="#fff3e0" stroke-width="1" opacity="0.4"/></g><g transform="rotate(-1 543.5 507.0)"><rect x="493" y="448" width="101" height="118" rx="3" fill="#7a5138"/><line x1="493" y1="448" x2="594" y2="448" stroke="#fff3e0" stroke-width="1" opacity="0.4"/></g><g transform="rotate(0 543.5 633.0)"><rect x="500" y="591" width="87" height="84" rx="3" fill="#7a5138"/><line x1="500" y1="591" x2="587" y2="591" stroke="#fff3e0" stroke-width="1" opacity="0.4"/></g><g transform="rotate(1 543.5 735.5)"><rect x="493" y="700" width="101" height="71" rx="3" fill="#8f6244"/><line x1="493" y1="700" x2="594" y2="700" stroke="#fff3e0" stroke-width="1" opacity="0.4"/></g><g transform="rotate(0 665.5 224.5)"><rect x="619" y="167" width="93" height="115" rx="3" fill="#7a5138"/><line x1="619" y1="167" x2="712" y2="167" stroke="#fff3e0" stroke-width="1" opacity="0.4"/></g><g transform="rotate(0 665.5 368.5)"><rect x="618" y="313" width="95" height="111" rx="3" fill="#7a5138"/><line x1="618" y1="313" x2="713" y2="313" stroke="#fff3e0" stroke-width="1" opacity="0.4"/></g><g transform="rotate(0 665.5 507.0)"><rect x="618" y="454" width="95" height="106" rx="3" fill="#5f3d29"/><line x1="618" y1="454" x2="713" y2="454" stroke="#fff3e0" stroke-width="1" opacity="0.4"/></g><g transform="rotate(1 665.5 633.0)"><rect x="616" y="588" width="99" height="90" rx="3" fill="#a3754f"/><line x1="616" y1="588" x2="715" y2="588" stroke="#fff3e0" stroke-width="1" opacity="0.4"/></g><g transform="rotate(-1 665.5 735.5)"><rect x="615" y="703" width="101" height="65" rx="3" fill="#7a5138"/><line x1="615" y1="703" x2="716" y2="703" stroke="#fff3e0" stroke-width="1" opacity="0.4"/></g><g transform="rotate(1 665.5 825.0)"><rect x="613" y="790" width="105" height="70" rx="3" fill="#8f6244"/><line x1="613" y1="790" x2="718" y2="790" stroke="#fff3e0" stroke-width="1" opacity="0.4"/></g><g transform="rotate(1 803.5 90.5)"><rect x="738" y="40" width="131" height="101" rx="3" fill="#a3754f"/><line x1="738" y1="40" x2="869" y2="40" stroke="#fff3e0" stroke-width="1" opacity="0.4"/></g><rect x="739" y="162" width="129" height="125" rx="10" fill="#6b5a3a" opacity="0.55"/><g transform="rotate(0 803.5 507.0)"><rect x="738" y="449" width="131" height="116" rx="3" fill="#5f3d29"/><line x1="738" y1="449" x2="869" y2="449" stroke="#fff3e0" stroke-width="1" opacity="0.4"/></g><g transform="rotate(-1 803.5 633.0)"><rect x="736" y="583" width="135" height="100" rx="3" fill="#a3754f"/><line x1="736" y1="583" x2="871" y2="583" stroke="#fff3e0" stroke-width="1" opacity="0.4"/></g><g transform="rotate(0 803.5 735.5)"><rect x="740" y="703" width="127" height="65" rx="3" fill="#7a5138"/><line x1="740" y1="703" x2="867" y2="703" stroke="#fff3e0" stroke-width="1" opacity="0.4"/></g><g transform="rotate(0 803.5 825.0)"><rect x="736" y="788" width="135" height="74" rx="3" fill="#7a5138"/><line x1="736" y1="788" x2="871" y2="788" stroke="#fff3e0" stroke-width="1" opacity="0.4"/></g><g transform="rotate(0 958.0 90.5)"><rect x="893" y="44" width="130" height="93" rx="3" fill="#a3754f"/><line x1="893" y1="44" x2="1023" y2="44" stroke="#fff3e0" stroke-width="1" opacity="0.4"/></g><g transform="rotate(-1 958.0 224.5)"><rect x="889" y="161" width="138" height="127" rx="3" fill="#a3754f"/><line x1="889" y1="161" x2="1027" y2="161" stroke="#fff3e0" stroke-width="1" opacity="0.4"/></g><g transform="rotate(0 958.0 368.5)"><rect x="888" y="307" width="140" height="123" rx="3" fill="#a3754f"/><line x1="888" y1="307" x2="1028" y2="307" stroke="#fff3e0" stroke-width="1" opacity="0.4"/></g><g transform="rotate(0 958.0 507.0)"><rect x="893" y="453" width="130" height="108" rx="3" fill="#5f3d29"/><line x1="893" y1="453" x2="1023" y2="453" stroke="#fff3e0" stroke-width="1" opacity="0.4"/></g><g transform="rotate(-1 958.0 633.0)"><rect x="891" y="587" width="134" height="92" rx="3" fill="#8f6244"/><line x1="891" y1="587" x2="1025" y2="587" stroke="#fff3e0" stroke-width="1" opacity="0.4"/></g><g transform="rotate(1 958.0 735.5)"><rect x="893" y="705" width="130" height="61" rx="3" fill="#a3754f"/><line x1="893" y1="705" x2="1023" y2="705" stroke="#fff3e0" stroke-width="1" opacity="0.4"/></g><g transform="rotate(0 958.0 825.0)"><rect x="892" y="793" width="132" height="64" rx="3" fill="#8f6244"/><line x1="892" y1="793" x2="1024" y2="793" stroke="#fff3e0" stroke-width="1" opacity="0.4"/></g><g transform="rotate(1 1115.5 90.5)"><rect x="1045" y="38" width="141" height="105" rx="3" fill="#8f6244"/><line x1="1045" y1="38" x2="1186" y2="38" stroke="#fff3e0" stroke-width="1" opacity="0.4"/></g><g transform="rotate(0 1115.5 224.5)"><rect x="1047" y="161" width="137" height="127" rx="3" fill="#8f6244"/><line x1="1047" y1="161" x2="1184" y2="161" stroke="#fff3e0" stroke-width="1" opacity="0.4"/></g><g transform="rotate(0 1115.5 368.5)"><rect x="1047" y="308" width="137" height="121" rx="3" fill="#a3754f"/><line x1="1047" y1="308" x2="1184" y2="308" stroke="#fff3e0" stroke-width="1" opacity="0.4"/></g><g transform="rotate(0 1115.5 507.0)"><rect x="1053" y="455" width="125" height="104" rx="3" fill="#a3754f"/><line x1="1053" y1="455" x2="1178" y2="455" stroke="#fff3e0" stroke-width="1" opacity="0.4"/></g><g transform="rotate(-1 1115.5 633.0)"><rect x="1053" y="591" width="125" height="84" rx="3" fill="#7a5138"/><line x1="1053" y1="591" x2="1178" y2="591" stroke="#fff3e0" stroke-width="1" opacity="0.4"/></g><g transform="rotate(0 1115.5 735.5)"><rect x="1052" y="706" width="127" height="59" rx="3" fill="#5f3d29"/><line x1="1052" y1="706" x2="1179" y2="706" stroke="#fff3e0" stroke-width="1" opacity="0.4"/></g><g transform="rotate(0 1115.5 825.0)"><rect x="1053" y="796" width="125" height="58" rx="3" fill="#a3754f"/><line x1="1053" y1="796" x2="1178" y2="796" stroke="#fff3e0" stroke-width="1" opacity="0.4"/></g><g transform="rotate(0 1250.5 90.5)"><rect x="1202" y="38" width="97" height="105" rx="3" fill="#a3754f"/><line x1="1202" y1="38" x2="1299" y2="38" stroke="#fff3e0" stroke-width="1" opacity="0.4"/></g><g transform="rotate(0 1250.5 224.5)"><rect x="1202" y="159" width="97" height="131" rx="3" fill="#5f3d29"/><line x1="1202" y1="159" x2="1299" y2="159" stroke="#fff3e0" stroke-width="1" opacity="0.4"/></g><g transform="rotate(0 1250.5 368.5)"><rect x="1202" y="306" width="97" height="125" rx="3" fill="#8f6244"/><line x1="1202" y1="306" x2="1299" y2="306" stroke="#fff3e0" stroke-width="1" opacity="0.4"/></g><g transform="rotate(0 1250.5 507.0)"><rect x="1210" y="455" width="81" height="104" rx="3" fill="#5f3d29"/><line x1="1210" y1="455" x2="1291" y2="455" stroke="#fff3e0" stroke-width="1" opacity="0.4"/></g><g transform="rotate(-1 1250.5 633.0)"><rect x="1208" y="589" width="85" height="88" rx="3" fill="#5f3d29"/><line x1="1208" y1="589" x2="1293" y2="589" stroke="#fff3e0" stroke-width="1" opacity="0.4"/></g><g transform="rotate(0 1250.5 735.5)"><rect x="1207" y="704" width="87" height="63" rx="3" fill="#5f3d29"/><line x1="1207" y1="704" x2="1294" y2="704" stroke="#fff3e0" stroke-width="1" opacity="0.4"/></g><g transform="rotate(0 1391.0 90.5)"><rect x="1317" y="40" width="148" height="101" rx="3" fill="#8f6244"/><line x1="1317" y1="40" x2="1465" y2="40" stroke="#fff3e0" stroke-width="1" opacity="0.4"/></g><g transform="rotate(-1 1391.0 224.5)"><rect x="1319" y="163" width="144" height="123" rx="3" fill="#a3754f"/><line x1="1319" y1="163" x2="1463" y2="163" stroke="#fff3e0" stroke-width="1" opacity="0.4"/></g><g transform="rotate(0 1391.0 368.5)"><rect x="1316" y="307" width="150" height="123" rx="3" fill="#5f3d29"/><line x1="1316" y1="307" x2="1466" y2="307" stroke="#fff3e0" stroke-width="1" opacity="0.4"/></g><g transform="rotate(0 1391.0 507.0)"><rect x="1315" y="447" width="152" height="120" rx="3" fill="#a3754f"/><line x1="1315" y1="447" x2="1467" y2="447" stroke="#fff3e0" stroke-width="1" opacity="0.4"/></g><g transform="rotate(-1 1391.0 633.0)"><rect x="1319" y="587" width="144" height="92" rx="3" fill="#a3754f"/><line x1="1319" y1="587" x2="1463" y2="587" stroke="#fff3e0" stroke-width="1" opacity="0.4"/></g><g transform="rotate(0 1391.0 735.5)"><rect x="1317" y="701" width="148" height="69" rx="3" fill="#8f6244"/><line x1="1317" y1="701" x2="1465" y2="701" stroke="#fff3e0" stroke-width="1" opacity="0.4"/></g><g transform="rotate(0 1391.0 825.0)"><rect x="1317" y="790" width="148" height="70" rx="3" fill="#5f3d29"/><line x1="1317" y1="790" x2="1465" y2="790" stroke="#fff3e0" stroke-width="1" opacity="0.4"/></g><g transform="rotate(0 1517.5 90.5)"><rect x="1487" y="42" width="61" height="97" rx="3" fill="#7a5138"/><line x1="1487" y1="42" x2="1548" y2="42" stroke="#fff3e0" stroke-width="1" opacity="0.4"/></g><g transform="rotate(0 1517.5 224.5)"><rect x="1484" y="160" width="67" height="129" rx="3" fill="#5f3d29"/><line x1="1484" y1="160" x2="1551" y2="160" stroke="#fff3e0" stroke-width="1" opacity="0.4"/></g><g transform="rotate(0 1517.5 368.5)"><rect x="1490" y="313" width="55" height="111" rx="3" fill="#a3754f"/><line x1="1490" y1="313" x2="1545" y2="313" stroke="#fff3e0" stroke-width="1" opacity="0.4"/></g><g transform="rotate(-1 1517.5 507.0)"><rect x="1487" y="451" width="61" height="112" rx="3" fill="#a3754f"/><line x1="1487" y1="451" x2="1548" y2="451" stroke="#fff3e0" stroke-width="1" opacity="0.4"/></g><g transform="rotate(-1 1517.5 633.0)"><rect x="1490" y="590" width="55" height="86" rx="3" fill="#7a5138"/><line x1="1490" y1="590" x2="1545" y2="590" stroke="#fff3e0" stroke-width="1" opacity="0.4"/></g><g transform="rotate(-1 1517.5 735.5)"><rect x="1486" y="702" width="63" height="67" rx="3" fill="#5f3d29"/><line x1="1486" y1="702" x2="1549" y2="702" stroke="#fff3e0" stroke-width="1" opacity="0.4"/></g><g transform="rotate(0 1517.5 825.0)"><rect x="1488" y="793" width="59" height="64" rx="3" fill="#5f3d29"/><line x1="1488" y1="793" x2="1547" y2="793" stroke="#fff3e0" stroke-width="1" opacity="0.4"/></g>
  
  <rect width="1600" height="900" fill="url(#vig)"/>
  <g opacity="0.55" font-family="monospace" font-size="16" fill="#f2f3f5"><text x="1576" y="880" text-anchor="end">ILLUSTRATIVE MAP - NOT AERIAL PHOTO</text></g>
</svg>