<svg xmlns="http://www.w3.org/2000/svg" viewBox="0 0 1600 900" width="1600" height="900">
  <defs>
    <linearGradient id="sky" x1="0" y1="0" x2="1" y2="1">
      <stop offset="0%" stop-color="#173226"/>
      <stop offset="100%" stop-color="#0c1e18"/>
    </linearGradient>
    <radialGradient id="vig" cx="50%" cy="42%" r="75%">
      <stop offset="60%" stop-color="#000000" stop-opacity="0"/>
      <stop offset="100%" stop-color="#000000" stop-opacity="0.45"/>
    </radialGradient>
  </defs>
  <rect width="1600" height="900" fill="url(#sky)"/>
  
  <g opacity="0.9"><line x1="40" y1="0" x2="40" y2="900" stroke="#e8f0e6" stroke-width="5" opacity="0.85"/><line x1="147" y1="0" x2="147" y2="900" stroke="#e8f0e6" stroke-width="2" opacity="0.45"/><line x1="268" y1="0" x2="268" y2="900" stroke="#e8f0e6" stroke-width="2" opacity="0.45"/><line x1="361" y1="0" x2="361" y2="900" stroke="#e8f0e6" stroke-width="2" opacity="0.45"/><line x1="529" y1="0" x2="529" y2="900" stroke="#e8f0e6" stroke-width="2" opacity="0.45"/><line x1="676" y1="0" x2="676" y2="900" stroke="#e8f0e6" stroke-width="5" opacity="0.85"/><line x1="789" y1="0" x2="789" y2="900" stroke="#e8f0e6" stroke-width="2" opacity="0.45"/><line x1="894" y1="0" x2="894" y2="900" stroke="#e8f0e6" stroke-width="2" opacity="0.45"/><line x1="1028" y1="0" x2="1028" y2="900" stroke="#e8f0e6" stroke-width="2" opacity="0.45"/><line x1="1128" y1="0" x2="1128" y2="900" stroke="#e8f0e6" stroke-width="2" opacity="0.45"/><line x1="1247" y1="0" x2="1247" y2="900" stroke="#e8f0e6" stroke-width="5" opacity="0.85"/><line x1="1371" y1="0" x2="1371" y2="900" stroke="#e8f0e6" stroke-width="2" opacity="0.45"/><line x1="1467" y1="0" x2="1467" y2="900" stroke="#e8f0e6" stroke-width="2" opacity="0.45"/><line x1="1560" y1="0" x2="1560" y2="900" stroke="#e8f0e6" stroke-width="2" opacity="0.45"/><line x1="0" y1="30" x2="1600" y2="30" stroke="#e8f0e6" stroke-width="5" opacity="0.85"/><line x1="0" y1="132" x2="1600" y2="132" stroke="#e8f0e6" stroke-width="2" opacity="0.45"/><line x1="0" y1="282" x2="1600" y2="282" stroke="#e8f0e6" stroke-width="2" opacity="0.45"/><line x1="0" y1="417" x2="1600" y2="417" stroke="#e8f0e6" stroke-width="2" opacity="0.45"/><line x1="0" y1="503" x2="1600" y2="503" stroke="#e8f0e6" stroke-width="2" opacity="0.45"/><line x1="0" y1="585" x2="1600" y2="585" stroke="#e8f0e6" stroke-width="5" opacity="0.85"/><line x1="0" y1="698" x2="1600" y2="698" stroke="#e8f0e6" stroke-width="2" opacity="0.45"/><line x1="0" y1="817" x2="1600" y2="817" stroke="#e8f0e6" stroke-width="2" opacity="0.45"/><line x1="0" y1="870" x2="1600" y2="870" stroke="#e8f0e6" stroke-width="2" opacity="0.45"/></g>
  <g transform="rotate(0 93.5 81.0)"><rect x="49" y="39" width="89" height="84" rx="3" fill="#3d6b52"/><line x1="49" y1="39" x2="138" y2="39" stroke="#f2fff5" stroke-width="1" opacity="0.4"/></g><g transform="rotate(0 93.5 207.0)"><rect x="52" y="144" width="83" height="126" rx="3" fill="#5aa07e"/><line x1="52" y1="144" x2="135" y2="144" stroke="#f2fff5" stroke-width="1" opacity="0.4"/></g><rect x="56" y="298" width="75" height="103" rx="10" fill="#63a17a" opacity="0.55"/><g transform="rotate(-1 93.5 460.0)"><rect x="50" y="427" width="87" height="66" rx="3" fill="#356b53"/><line x1="50" y1="427" x2="137" y2="427" stroke="#f2fff5" stroke-width="1" opacity="0.4"/></g><g transform="rotate(-1 93.5 544.0)"><rect x="54" y="517" width="79" height="54" rx="3" fill="#356b53"/><line x1="54" y1="517" x2="133" y2="517" stroke="#f2fff5" stroke-width="1" opacity="0.4"/></g><g transform="rotate(0 93.5 641.5)"><rect x="54" y="599" width="79" height="85" rx="3" fill="#4f8365"/><line x1="54" y1="599" x2="133" y2="599" stroke="#f2fff5" stroke-width="1" opacity="0.4"/></g><g transform="rotate(-1 93.5 757.5)"><rect x="54" y="712" width="79" height="91" rx="3" fill="#356b53"/><line x1="54" y1="712" x2="133" y2="712" stroke="#f2fff5" stroke-width="1" opacity="0.4"/></g><g transform="rotate(0 93.5 843.5)"><rect x="56" y="833" width="75" height="21" rx="3" fill="#5aa07e"/><line x1="56" y1="833" x2="131" y2="833" stroke="#f2fff5" stroke-width="1" opacity="0.4"/></g><g transform="rotate(0 207.5 207.0)"><rect x="156" y="141" width="103" height="132" rx="3" fill="#5aa07e"/><line x1="156" y1="141" x2="259" y2="141" stroke="#f2fff5" stroke-width="1" opacity="0.4"/></g><g transform="rotate(0 207.5 349.5)"><rect x="158" y="293" width="99" height="113" rx="3" fill="#5aa07e"/><line x1="158" y1="293" x2="257" y2="293" stroke="#f2fff5" stroke-width="1" opacity="0.4"/></g><rect x="157" y="513" width="101" height="62" rx="10" fill="#63a17a" opacity="0.55"/><g transform="rotate(0 207.5 641.5)"><rect x="157" y="595" width="101" height="93" rx="3" fill="#356b53"/><line x1="157" y1="595" x2="258" y2="595" stroke="#f2fff5" stroke-width="1" opacity="0.4"/></g><g transform="rotate(0 207.5 757.5)"><rect x="156" y="707" width="103" height="101" rx="3" fill="#4f8365"/><line x1="156" y1="707" x2="259" y2="707" stroke="#f2fff5" stroke-width="1" opacity="0.4"/></g><g transform="rotate(0 314.5 81.0)"><rect x="278" y="40" width="73" height="82" rx="3" fill="#5aa07e"/><line x1="278" y1="40" x2="351" y2="40" stroke="#f2fff5" stroke-width="1" opacity="0.4"/></g><g transform="rotate(-1 314.5 207.0)"><rect x="283" y="147" width="63" height="120" rx="3" fill="#4f8365"/><line x1="283" y1="147" x2="346" y2="147" stroke="#f2fff5" stroke-width="1" opacity="0.4"/></g><g transform="rotate(0 314.5 349.5)"><rect x="283" y="297" width="63" height="105" rx="3" fill="#3d6b52"/><line x1="283" y1="297" x2="346" y2="297" stroke="#f2fff5" stroke-width="1" opacity="0.4"/></g><g transform="rotate(0 314.5 460.0)"><rect x="277" y="426" width="75" height="68" rx="3" fill="#356b53"/><line x1="277" y1="426" x2="352" y2="426" stroke="#f2fff5" stroke-width="1" opacity="0.4"/></g><g transform="rotate(-1 314.5 641.5)"><rect x="277" y="594" width="75" height="95" rx="3" fill="#4f8365"/><line x1="277" y1="594" x2="352" y2="594" stroke="#f2fff5" stroke-width="1" opacity="0.4"/></g><g transform="rotate(0 314.5 757.5)"><rect x="280" y="710" width="69" height="95" rx="3" fill="#3d6b52"/><line x1="280" y1="710" x2="349" y2="710" stroke="#f2fff5" stroke-width="1" opacity="0.4"/></g><g transform="rotate(1 314.5 843.5)"><rect x="277" y="826" width="75" height="35" rx="3" fill="#356b53"/><line x1="277" y1="826" x2="352" y2="826" stroke="#f2fff5" stroke-width="1" opacity="0.4"/></g><rect x="371" y="40" width="148" height="82" rx="10" fill="#63a17a" opacity="0.55"/><g transform="rotate(0 445.0 207.0)"><rect x="376" y="147" width="138" height="120" rx="3" fill="#5aa07e"/><line x1="376" y1="147" x2="514" y2="147" stroke="#f2fff5" stroke-width="1" opacity="0.4"/></g><g transform="rotate(0 445.0 349.5)"><rect x="377" y="298" width="136" height="103" rx="3" fill="#3d6b52"/><line x1="377" y1="298" x2="513" y2="298" stroke="#f2fff5" stroke-width="1" opacity="0.4"/></g><g transform="rotate(1 445.0 460.0)"><rect x="369" y="425" width="152" height="70" rx="3" fill="#5aa07e"/><line x1="369" y1="425" x2="521" y2="425" stroke="#f2fff5" stroke-width="1" opacity="0.4"/></g><g transform="rotate(0 445.0 641.5)"><rect x="375" y="599" width="140" height="85" rx="3" fill="#4f8365"/><line x1="375" y1="599" x2="515" y2="599" stroke="#f2fff5" stroke-width="1" opacity="0.4"/></g><g transform="rotate(0 445.0 757.5)"><rect x="370" y="707" width="150" height="101" rx="3" fill="#4f8365"/><line x1="370" y1="707" x2="520" y2="707" stroke="#f2fff5" stroke-width="1" opacity="0.4"/></g><rect x="374" y="830" width="142" height="27" rx="10" fill="#63a17a" opacity="0.55"/><rect x="541" y="42" width="123" height="78" rx="10" fill="#63a17a" opacity="0.55"/><g transform="rotate(0 602.5 207.0)"><rect x="537" y="140" width="131" height="134" rx="3" fill="#3d6b52"/><line x1="537" y1="140" x2="668" y2="140" stroke="#f2fff5" stroke-width="1" opacity="0.4"/></g><g transform="rotate(1 602.5 349.5)"><rect x="544" y="297" width="117" height="105" rx="3" fill="#4f8365"/><line x1="544" y1="297" x2="661" y2="297" stroke="#f2fff5" stroke-width="1" opacity="0.4"/></g><g transform="rotate(0 602.5 460.0)"><rect x="539" y="427" width="127" height="66" rx="3" fill="#356b53"/><line x1="539" y1="427" x2="666" y2="427" stroke="#f2fff5" stroke-width="1" opacity="0.4"/></g><g transform="rotate(0 602.5 544.0)"><rect x="538" y="512" width="129" height="64" rx="3" fill="#356b53"/><line x1="538" y1="512" x2="667" y2="512" stroke="#f2fff5" stroke-width="1" opacity="0.4"/></g><g transform="rotate(0 602.5 641.5)"><rect x="545" y="601" width="115" height="81" rx="3" fill="#356b53"/><line x1="545" y1="601" x2="660" y2="601" stroke="#f2fff5" stroke-width="1" opacity="0.4"/></g><g transform="rotate(1 602.5 757.5)"><rect x="542" y="711" width="121" height="93" rx="3" fill="#5aa07e"/><line x1="542" y1="711" x2="663" y2="711" stroke="#f2fff5" stroke-width="1" opacity="0.4"/></g><g transform="rotate(0 602.5 843.5)"><rect x="545" y="833" width="115" height="21" rx="3" fill="#5aa07e"/><line x1="545" y1="833" x2="660" y2="833" stroke="#f2fff5" stroke-width="1" opacity="0.4"/></g><g transform="rotate(0 732.5 81.0)"><rect x="685" y="39" width="95" height="84" rx="3" fill="#4f8365"/><line x1="685" y1="39" x2="780" y2="39" stroke="#f2fff5" stroke-width="1" opacity="0.4"/></g><g transform="rotate(0 732.5 349.5)"><rect x="689" y="295" width="87" height="109" rx="3" fill="#4f8365"/><line x1="689" y1="295" x2="776" y2="295" stroke="#f2fff5" stroke-width="1" opacity="0.4"/></g><g transform="rotate(0 732.5 460.0)"><rect x="684" y="425" width="97" height="70" rx="3" fill="#3d6b52"/><line x1="684" y1="425" x2="781" y2="425" stroke="#f2fff5" stroke-width="1" opacity="0.4"/></g><g transform="rotate(0 732.5 544.0)"><rect x="684" y="511" width="97" height="66" rx="3" fill="#3d6b52"/><line x1="684" y1="511" x2="781" y2="511" stroke="#f2fff5" stroke-width="1" opacity="0.4"/></g><g transform="rotate(0 732.5 641.5)"><rect x="686" y="595" width="93" height="93" rx="3" fill="#356b53"/><line x1="686" y1="595" x2="779" y2="595" stroke="#f2fff5" stroke-width="1" opacity="0.4"/></g><g transform="rotate(0 732.5 757.5)"><rect x="690" y="712" width="85" height="91" rx="3" fill="#356b53"/><line x1="690" y1="712" x2="775" y2="712" stroke="#f2fff5" stroke-width="1" opacity="0.4"/></g><g transform="rotate(0 732.5 843.5)"><rect x="684" y="825" width="97" height="37" rx="3" fill="#356b53"/><line x1="684" y1="825" x2="781" y2="825" stroke="#f2fff5" stroke-width="1" opacity="0.4"/></g><g transform="rotate(0 841.5 207.0)"><rect x="798" y="141" width="87" height="132" rx="3" fill="#356b53"/><line x1="798" y1="141" x2="885" y2="141" stroke="#f2fff5" stroke-width="1" opacity="0.4"/></g><rect x="798" y="291" width="87" height="117" rx="10" fill="#63a17a" opacity="0.55"/><g transform="rotate(1 841.5 460.0)"><rect x="802" y="430" width="79" height="60" rx="3" fill="#4f8365"/><line x1="802" y1="430" x2="881" y2="430" stroke="#f2fff5" stroke-width="1" opacity="0.4"/></g><g transform="rotate(0 841.5 544.0)"><rect x="803" y="517" width="77" height="54" rx="3" fill="#5aa07e"/><line x1="803" y1="517" x2="880" y2="517" stroke="#f2fff5" stroke-width="1" opacity="0.4"/></g><g transform="rotate(0 841.5 641.5)"><rect x="800" y="596" width="83" height="91" rx="3" fill="#356b53"/><line x1="800" y1="596" x2="883" y2="596" stroke="#f2fff5" stroke-width="1" opacity="0.4"/></g><g transform="rotate(0 841.5 757.5)"><rect x="801" y="710" width="81" height="95" rx="3" fill="#4f8365"/><line x1="801" y1="710" x2="882" y2="710" stroke="#f2fff5" stroke-width="1" opacity="0.4"/></g><g transform="rotate(1 841.5 843.5)"><rect x="800" y="828" width="83" height="31" rx="3" fill="#4f8365"/><line x1="800" y1="828" x2="883" y2="828" stroke="#f2fff5" stroke-width="1" opacity="0.4"/></g><rect x="904" y="142" width="114" height="130" rx="10" fill="#63a17a" opacity="0.55"/><g transform="rotate(0 961.0 349.5)"><rect x="904" y="292" width="114" height="115" rx="3" fill="#3d6b52"/><line x1="904" y1="292" x2="1018" y2="292" stroke="#f2fff5" stroke-width="1" opacity="0.4"/></g><g transform="rotate(1 961.0 460.0)"><rect x="904" y="427" width="114" height="66" rx="3" fill="#5aa07e"/><line x1="904" y1="427" x2="1018" y2="427" stroke="#f2fff5" stroke-width="1" opacity="0.4"/></g><g transform="rotate(1 961.0 544.0)"><rect x="902" y="511" width="118" height="66" rx="3" fill="#5aa07e"/><line x1="902" y1="511" x2="1020" y2="511" stroke="#f2fff5" stroke-width="1" opacity="0.4"/></g><g transform="rotate(0 961.0 641.5)"><rect x="906" y="597" width="110" height="89" rx="3" fill="#3d6b52"/><line x1="906" y1="597" x2="1016" y2="597" stroke="#f2fff5" stroke-width="1" opacity="0.4"/></g><g transform="rotate(0 961.0 757.5)"><rect x="909" y="713" width="104" height="89" rx="3" fill="#3d6b52"/><line x1="909" y1="713" x2="1013" y2="713" stroke="#f2fff5" stroke-width="1" opacity="0.4"/></g><g transform="rotate(0 961.0 843.5)"><rect x="906" y="829" width="110" height="29" rx="3" fill="#3d6b52"/><line x1="906" y1="829" x2="1016" y2="829" stroke="#f2fff5" stroke-width="1" opacity="0.4"/></g><g transform="rotate(0 1078.0 81.0)"><rect x="1040" y="42" width="76" height="78" rx="3" fill="#4f8365"/><line x1="1040" y1="42" x2="1116" y2="42" stroke="#f2fff5" stroke-width="1" opacity="0.4"/></g><g transform="rotate(1 1078.0 207.0)"><rect x="1043" y="147" width="70" height="120" rx="3" fill="#4f8365"/><line x1="1043" y1="147" x2="1113" y2="147" stroke="#f2fff5" stroke-width="1" opacity="0.4"/></g><g transform="rotate(0 1078.0 349.5)"><rect x="1043" y="297" width="70" height="105" rx="3" fill="#5aa07e"/><line x1="1043" y1="297" x2="1113" y2="297" stroke="#f2fff5" stroke-width="1" opacity="0.4"/></g><g transform="rotate(-1 1078.0 460.0)"><rect x="1039" y="428" width="78" height="64" rx="3" fill="#4f8365"/><line x1="1039" y1="428" x2="1117" y2="428" stroke="#f2fff5" stroke-width="1" opacity="0.4"/></g><g transform="rotate(-1 1078.0 544.0)"><rect x="1040" y="515" width="76" height="58" rx="3" fill="#4f8365"/><line x1="1040" y1="515" x2="1116" y2="515" stroke="#f2fff5" stroke-width="1" opacity="0.4"/></g><g transform="rotate(0 1078.0 641.5)"><rect x="1041" y="598" width="74" height="87" rx="3" fill="#356b53"/><line x1="1041" y1="598" x2="1115" y2="598" stroke="#f2fff5" stroke-width="1" opacity="0.4"/></g><g transform="rotate(0 1078.0 757.5)"><rect x="1039" y="709" width="78" height="97" rx="3" fill="#356b53"/><line x1="1039" y1="709" x2="1117" y2="709" stroke="#f2fff5" stroke-width="1" opacity="0.4"/></g><rect x="1038" y="827" width="80" height="33" rx="10" fill="#63a17a" opacity="0.55"/><g transform="rotate(0 1187.5 81.0)"><rect x="1140" y="42" width="95" height="78" rx="3" fill="#3d6b52"/><line x1="1140" y1="42" x2="1235" y2="42" stroke="#f2fff5" stroke-width="1" opacity="0.4"/></g><g transform="rotate(1 1187.5 207.0)"><rect x="1144" y="148" width="87" height="118" rx="3" fill="#4f8365"/><line x1="1144" y1="148" x2="1231" y2="148" stroke="#f2fff5" stroke-width="1" opacity="0.4"/></g><g transform="rotate(0 1187.5 349.5)"><rect x="1141" y="295" width="93" height="109" rx="3" fill="#356b53"/><line x1="1141" y1="295" x2="1234" y2="295" stroke="#f2fff5" stroke-width="1" opacity="0.4"/></g><rect x="1141" y="516" width="93" height="56" rx="10" fill="#63a17a" opacity="0.55"/><g transform="rotate(0 1187.5 641.5)"><rect x="1144" y="601" width="87" height="81" rx="3" fill="#3d6b52"/><line x1="1144" y1="601" x2="1231" y2="601" stroke="#f2fff5" stroke-width="1" opacity="0.4"/></g><g transform="rotate(-1 1187.5 757.5)"><rect x="1143" y="713" width="89" height="89" rx="3" fill="#3d6b52"/><line x1="1143" y1="713" x2="1232" y2="713" stroke="#f2fff5" stroke-width="1" opacity="0.4"/></g><g transform="rotate(-1 1187.5 843.5)"><rect x="1143" y="832" width="89" height="23" rx="3" fill="#356b53"/><line x1="1143" y1="832" x2="1232" y2="832" stroke="#f2fff5" stroke-width="1" opacity="0.4"/></g><g transform="rotate(-1 1309.0 81.0)"><rect x="1257" y="40" width="104" height="82" rx="3" fill="#3d6b52"/><line x1="1257" y1="40" x2="1361" y2="40" stroke="#f2fff5" stroke-width="1" opacity="0.4"/></g><rect x="1256" y="141" width="106" height="132" rx="10" fill="#63a17a" opacity="0.55"/><g transform="rotate(1 1309.0 349.5)"><rect x="1261" y="296" width="96" height="107" rx="3" fill="#356b53"/><line x1="1261" y1="296" x2="1357" y2="296" stroke="#f2fff5" stroke-width="1" opacity="0.4"/></g><g transform="rotate(0 1309.0 460.0)"><rect x="1256" y="426" width="106" height="68" rx="3" fill="#5aa07e"/><line x1="1256" y1="426" x2="1362" y2="426" stroke="#f2fff5" stroke-width="1" opacity="0.4"/></g><g transform="rotate(1 1309.0 641.5)"><rect x="1263" y="601" width="92" height="81" rx="3" fill="#356b53"/><line x1="1263" y1="601" x2="1355" y2="601" stroke="#f2fff5" stroke-width="1" opacity="0.4"/></g><g transform="rotate(0 1309.0 757.5)"><rect x="1255" y="706" width="108" height="103" rx="3" fill="#3d6b52"/><line x1="1255" y1="706" x2="1363" y2="706" stroke="#f2fff5" stroke-width="1" opacity="0.4"/></g><g transform="rotate(1 1309.0 843.5)"><rect x="1255" y="825" width="108" height="37" rx="3" fill="#5aa07e"/><line x1="1255" y1="825" x2="1363" y2="825" stroke="#f2fff5" stroke-width="1" opacity="0.4"/></g><g transform="rotate(0 1419.0 207.0)"><rect x="1386" y="147" width="66" height="120" rx="3" fill="#356b53"/><line x1="1386" y1="147" x2="1452" y2="147" stroke="#f2fff5" stroke-width="1" opacity="0.4"/></g><g transform="rotate(0 1419.0 349.5)"><rect x="1381" y="292" width="76" height="115" rx="3" fill="#3d6b52"/><line x1="1381" y1="292" x2="1457" y2="292" stroke="#f2fff5" stroke-width="1" opacity="0.4"/></g><g transform="rotate(1 1419.0 460.0)"><rect x="1382" y="428" width="74" height="64" rx="3" fill="#4f8365"/><line x1="1382" y1="428" x2="1456" y2="428" stroke="#f2fff5" stroke-width="1" opacity="0.4"/></g><rect x="1380" y="512" width="78" height="64" rx="10" fill="#63a17a" opacity="0.55"/><g transform="rotate(0 1419.0 641.5)"><rect x="1383" y="597" width="72" height="89" rx="3" fill="#5aa07e"/><line x1="1383" y1="597" x2="1455" y2="597" stroke="#f2fff5" stroke-width="1" opacity="0.4"/></g><g transform="rotate(0 1419.0 757.5)"><rect x="1384" y="711" width="70" height="93" rx="3" fill="#356b53"/><line x1="1384" y1="711" x2="1454" y2="711" stroke="#f2fff5" stroke-width="1" opacity="0.4"/></g><rect x="1478" y="41" width="71" height="80" rx="10" fill="#63a17a" opacity="0.55"/><rect x="1477" y="142" width="73" height="130" rx="10" fill="#63a17a" opacity="0.55"/><g transform="rotate(0 1513.5 349.5)"><rect x="1479" y="294" width="69" height="111" rx="3" fill="#356b53"/><line x1="1479" y1="294" x2="1548" y2="294" stroke="#f2fff5" stroke-width="1" opacity="0.4"/></g><g transform="rotate(0 1513.5 460.0)"><rect x="1482" y="432" width="63" height="56" rx="3" fill="#5aa07e"/><line x1="1482" y1="432" x2="1545" y2="432" stroke="#f2fff5" stroke-width="1" opacity="0.4"/></g><rect x="1479" y="597" width="69" height="89" rx="10" fill="#63a17a" opacity="0.55"/><g transform="rotate(0 1513.5 843.5)"><rect x="1483" y="833" width="61" height="21" rx="3" fill="#3d6b52"/><line x1="1483" y1="833" x2="1544" y2="833" stroke="#f2fff5" stroke-width="1" opacity="0.4"/></g>
  
  <rect width="1600" height="900" fill="url(#vig)"/>
  <g opacity="0.55" font-family="monospace" font-size="16" fill="#f2f3f5"><text x="1576" y="880" text-anchor="end">ILLUSTRATIVE MAP - NOT AERIAL PHOTO</text></g>
</svg>